<?xml version="1.0" encoding="UTF-8"?>
<svg id="Layer_2" data-name="Layer 2" xmlns="http://www.w3.org/2000/svg" viewBox="0 0 154.63 110.4">
  <defs>
    <style>
      .cls-1 {
        fill: #192a4e;
      }
    </style>
  </defs>
  <g id="Layer_1-2" data-name="Layer 1">
    <polygon class="cls-1" points="72.68 103.64 72.68 109.64 53.68 109.64 53.68 82.64 61.68 82.64 61.68 103.64 72.68 103.64"/>
    <polygon class="cls-1" points="96.68 103.64 96.68 109.64 75.68 109.64 75.68 82.64 96.68 82.64 96.68 88.64 83.68 88.64 83.68 92.64 95.68 92.64 95.68 98.64 83.68 98.64 83.68 103.64 96.68 103.64"/>
    <polygon class="cls-1" points="125.39 109.64 116.47 109.64 111.67 101.53 106.77 109.64 98.09 109.64 107.44 95.73 98.58 82.64 107.61 82.64 111.95 89.77 116.21 82.64 124.89 82.64 116.23 95.62 125.39 109.64"/>
    <path class="cls-1" d="M140.07,110.4c-2.12,0-4.08-.35-5.86-1.06-1.78-.71-3.34-1.69-4.67-2.96-1.33-1.26-2.36-2.76-3.09-4.48-.73-1.72-1.1-3.58-1.1-5.57s.36-3.88,1.08-5.58,1.74-3.17,3.05-4.44,2.86-2.24,4.65-2.94c1.78-.7,3.74-1.04,5.86-1.04s4.08.35,5.86,1.04,3.33,1.67,4.65,2.94c1.31,1.26,2.33,2.75,3.05,4.46s1.08,3.57,1.08,5.59-.36,3.85-1.08,5.56c-.72,1.71-1.74,3.2-3.05,4.48-1.32,1.28-2.86,2.26-4.63,2.96-1.77.7-3.71,1.04-5.8,1.04ZM139.99,103.73c1.42,0,2.64-.3,3.68-.91,1.04-.61,1.83-1.47,2.39-2.58.56-1.11.83-2.42.83-3.91,0-1.11-.16-2.12-.47-3.02-.32-.9-.78-1.67-1.38-2.31-.61-.64-1.33-1.14-2.18-1.48-.85-.34-1.8-.51-2.86-.51-1.42,0-2.64.3-3.68.89-1.04.59-1.83,1.44-2.39,2.54-.56,1.1-.83,2.4-.83,3.89,0,1.14.16,2.16.47,3.07.32.91.78,1.69,1.38,2.33.61.64,1.33,1.14,2.18,1.48.85.34,1.8.51,2.86.51Z"/>
    <g>
      <path class="cls-1" d="M19.42,74.26c-2.31-4.2-3.77-8.6-4.42-13.25-.65-4.69-.43-9.35,1.1-14.02C9.68,48.42,4.29,51.33,0,56.33c0-.13-.02-.22,0-.29,1.18-3.68,2.78-7.16,5.19-10.2,1.16-1.46,2.45-2.84,3.82-4.1,1.79-1.66,3.83-3.02,5.97-4.21,3.01-1.68,6.18-2.99,9.48-3.95,2.44-.71,4.91-1.3,7.39-1.85,1.75-.39,3.54-.67,5.31-.96,1.65-.27,3.31-.52,4.98-.75,1.16-.16,2.32-.26,3.48-.39,1.27-.15,2.53-.32,3.8-.46,1.01-.11,2.02-.19,3.03-.3,1.04-.11,2.07-.25,3.11-.37.96-.11,1.93-.19,2.89-.3.96-.11,1.91-.24,2.87-.36.83-.1,1.67-.19,2.5-.31,1.03-.14,2.06-.29,3.09-.45,1.43-.22,2.86-.43,4.28-.69,1.24-.22,2.46-.48,3.69-.76,2.63-.59,5.22-1.33,7.76-2.24,3.16-1.14,6.16-2.59,8.92-4.5,1.69-1.17,3.25-2.52,4.63-4.05,1.97-2.17,3.52-4.62,4.68-7.32.98-2.29,1.71-4.65,2.14-7.1.02-.1.08-.2.17-.41.11.56.21,1.03.28,1.49.39,2.59.47,5.19.36,7.8-.06,1.54-.28,3.07-.46,4.61-.28,2.4-.91,4.72-1.71,6.99-.83,2.35-1.93,4.57-3.23,6.7-1.62,2.64-3.66,4.93-5.91,7.02-1.74,1.61-3.64,3.02-5.7,4.2-1.38.79-2.75,1.6-4.2,2.24-2.11.94-4.27,1.76-6.43,2.58-3.61,1.37-7.36,2.31-11.11,3.2-2.86.68-5.76,1.24-8.64,1.81-2.42.48-4.85.88-7.27,1.36-2.05.41-4.1.83-6.13,1.33-2.16.54-4.32,1.11-6.44,1.81-1.69.56-3.35,1.24-4.95,2.01-1.88.91-3.62,2.04-5.21,3.43-1.97,1.72-3.51,3.76-4.65,6.1-.93,1.89-1.53,3.89-1.87,5.97-.19,1.16-.32,2.33-.49,3.62Z"/>
      <path class="cls-1" d="M50.05,109.87c-1.96-.22-3.76-.73-5.51-1.37-2.79-1.02-5.39-2.4-7.69-4.29-3.05-2.51-5.53-5.49-7.43-8.96-1.37-2.5-2.3-5.14-2.84-7.93-.38-1.94-.43-3.92-.27-5.87.33-4.04,1.65-7.77,3.99-11.09,1.68-2.38,3.87-4.21,6.39-5.67,3.04-1.77,6.32-2.93,9.7-3.87,3.58-.99,7.23-1.71,10.86-2.47,3.68-.77,7.36-1.57,11.01-2.47,3.11-.77,6.15-1.81,9.09-3.12,2.71-1.2,5.26-2.68,7.61-4.49.58-.45,1.11-.97,1.67-1.45.17-.15.36-.3.53-.45.05.02.09.03.14.05-.2,1.03-.38,2.06-.62,3.08-.66,2.8-1.76,5.43-3.12,7.95-.97,1.8-2.1,3.52-3.45,5.07-.98,1.13-1.96,2.26-3.03,3.3-1.94,1.9-4.13,3.49-6.44,4.91-2.61,1.6-5.41,2.78-8.32,3.68-2.79.86-5.63,1.59-8.4,2.51-3.27,1.08-6.26,2.72-8.94,4.91-2.17,1.76-3.56,4.04-4.42,6.67-.41,1.25-.71,2.52-.77,3.83-.04.97-.15,1.95-.08,2.92.13,1.89.54,3.72,1.25,5.48.98,2.45,2.49,4.53,4.47,6.26,1.32,1.16,2.8,2.09,4.44,2.75.04.02.07.05.19.13Z"/>
      <path class="cls-1" d="M50.05,110.4c-1.96-.22-3.76-.73-5.51-1.37-2.79-1.02-5.39-2.4-7.69-4.29-3.05-2.51-5.53-5.49-7.43-8.96-1.37-2.5-2.3-5.14-2.84-7.93-.38-1.94-.43-3.92-.27-5.87.33-4.04,1.65-7.77,3.99-11.09,1.68-2.38,3.87-4.21,6.39-5.67,3.04-1.77,6.32-2.93,9.7-3.87,3.58-.99,7.23-1.71,10.86-2.47,3.68-.77,7.36-1.57,11.01-2.47,3.11-.77,6.15-1.81,9.09-3.12,2.71-1.2,5.26-2.68,7.61-4.49.58-.45,1.11-.97,1.67-1.45.17-.15.36-.3.53-.45.05.02.09.03.14.05-.2,1.03-.38,2.06-.62,3.08-.66,2.8-1.76,5.43-3.12,7.95-.97,1.8-2.1,3.52-3.45,5.07-.98,1.13-1.96,2.26-3.03,3.3-1.94,1.9-4.13,3.49-6.44,4.91-2.61,1.6-5.41,2.78-8.32,3.68-2.79.86-5.63,1.59-8.4,2.51-3.27,1.08-6.26,2.72-8.94,4.91-2.17,1.76-3.56,4.04-4.42,6.67-.41,1.25-.71,2.52-.77,3.83-.04.97-.15,1.95-.08,2.92.13,1.89.54,3.72,1.25,5.48.98,2.45,2.49,4.53,4.47,6.26,1.32,1.16,2.8,2.09,4.44,2.75.04.02.07.05.19.13Z"/>
    </g>
  </g>
</svg>